OpenSim_Sub05_CSStiffKnee_GRF.mot
version=1
nRows=52
nColumns=19
inDegrees=no
endheader
time	lFx	lFy	lFz	lCOPx	lCOPy	lCOPz	rFx	rFy	rFz	rCOPx	rCOPy	rCOPz	lMx	lMy	lMz	rMx	rMy	rMz
56.24000000	0.50075694	-0.35604646	-3.89942228	-0.00000522	0	0.00000318	-24.88670015	768.39017349	-73.13726587	1.02962824	0	-0.34240475	0	0.00002238	0	0	-2.90759286	0
56.25000000	0.43460764	-0.45508588	-3.82893802	-0.00002187	0	0.00001347	-24.51288391	775.05340837	-73.17295426	1.02315729	0	-0.34280753	0	0.00004608	0	0	-2.56410654	0
56.26000000	0.38297292	-0.50063541	-3.78260276	-0.00004709	0	0.00002914	-23.86381477	780.15674204	-72.76030535	1.01659671	0	-0.34327212	0	0.00005607	0	0	-2.15290915	0
56.27000000	0.34887910	-0.53234149	-3.77553459	-0.00006111	0	0.00003805	-22.60642429	783.32635010	-72.02503554	1.00993327	0	-0.34376840	0	-0.00000323	0	0	-1.72251212	0.00000000
56.28000000	0.29714306	-0.64720795	-3.77492230	-0.00000836	0	0.00000590	-20.75424140	784.82934515	-71.29134039	1.00320295	0	-0.34427639	0	-0.00022246	0	0	-1.31845938	-0.00000000
56.29000000	0.22188153	-0.79309133	-3.76240018	0.00020614	0	-0.00012623	-18.54366400	785.20502523	-70.83782393	0.99639819	0	-0.34478351	0	-0.00066824	0	0	-0.93279428	0.00000000
56.30000000	0.14377650	-0.84258260	-3.70964680	0.00066226	0	-0.00040849	-16.34071640	784.99189156	-70.67023448	0.98964370	0	-0.34529504	0	-0.00120052	0	0	-0.55663592	0
56.31000000	0.08975474	-0.79501756	-3.67658206	0.00124411	0	-0.00077088	-14.14058684	784.30025431	-70.51056704	0.98289167	0	-0.34583256	0	-0.00113833	0	0	-0.17110500	-0.00000000
56.32000000	0.09764229	-0.70582802	-3.67161447	0.00129434	0	-0.00080905	-11.84429147	783.05366664	-70.08115059	0.97612098	0	-0.34643690	0	0.00107023	0	0	0.30133712	0
56.33000000	0.24720058	-0.70653174	-3.70357978	-0.00075829	0	0.00044828	-9.53714887	781.32798641	-69.13747672	0.96932683	0	-0.34711630	0	0.00759009	0	0	0.85028026	0
56.34000000	0.53352846	-1.02550830	-3.77982150	-0.00722749	0	0.00443907	-7.33284138	779.44514852	-67.62395735	0.96254277	0	-0.34784753	0	0.01915887	0	0	1.37242639	0.00000000
56.35000000	0.65628368	-1.62419494	-3.82785116	-0.01923257	0	0.01187867	-5.09095521	777.59549924	-65.73227899	0.95572137	0	-0.34863843	0	0.02982364	0	0	1.86648984	0.00000000
56.36000000	-0.13161222	-1.76106750	-3.79177399	-0.03142401	0	0.01950280	-2.48431222	775.97948634	-63.69627029	0.94895558	0	-0.34945735	0	0.01857826	0	0	2.36947498	0
56.37000000	-3.06714068	0.28195512	-3.57055655	-0.02319410	0	0.01461391	0.59800299	774.69888900	-61.79033194	0.94232411	0	-0.35025224	0	-0.05625935	0	0	2.82082012	0
56.38000000	-9.16919567	7.14172455	-3.08483649	0.04820853	0	-0.02925038	4.12605259	773.50714898	-60.35028836	0.93584220	0	-0.35098635	0	-0.24253617	0	0	3.17670579	0
56.39000000	-17.91281374	22.23622525	-2.40594032	0.23541253	0	-0.14488710	8.10524726	771.57579408	-59.53398100	0.92934669	0	-0.35164816	0	-0.52855612	0	0	3.46509225	0
56.40000000	-26.39676457	50.44814170	-1.72513531	0.53734310	0	-0.33230337	12.58836868	767.72676854	-59.25034012	0.92284332	0	-0.35223405	0	-0.69728493	0	0	3.65784709	0
56.41000000	-28.98055089	97.09714582	-1.15503253	0.81251559	0	-0.50408594	17.47758018	760.69671113	-59.23071246	0.91642400	0	-0.35275345	0	-0.29079130	0	0	3.74235527	0.00000000
56.42000000	-20.98125841	164.17467102	-0.65122083	0.96264698	0	-0.59934887	22.78315533	749.41780277	-59.16043135	0.91008559	0	-0.35321945	0	0.92923901	0	0	3.75393906	0.00000000
56.43000000	-6.82511640	246.16879289	0.94317443	1.00888654	0	-0.63287276	28.73399372	733.12366906	-58.61251121	0.90378900	0	-0.35367995	0	2.59680488	0	0	3.69141436	0
56.44000000	4.75284991	332.23116810	4.58582791	1.00330159	0	-0.63587686	35.58949653	711.50758853	-57.23832916	0.89758551	0	-0.35417768	0	4.04472402	0	0	3.53724327	-0.00000000
56.45000000	9.73045502	411.40658496	10.43264458	0.98505079	0	-0.63036946	42.90689315	684.85000822	-54.71268807	0.89151677	0	-0.35471409	0	4.81527822	0	0	3.35058419	0
56.46000000	9.09653103	477.47081825	18.43397672	0.97083964	0	-0.62601324	49.89109051	653.86491600	-50.58759331	0.88547525	0	-0.35525076	0	4.74646571	0	0	3.16681866	0
56.47000000	6.38450368	531.31809372	28.14565987	0.96254454	0	-0.62478081	56.05882125	618.74204833	-44.76973658	0.87943943	0	-0.35575078	0	3.93047225	0	0	2.97114521	0
56.48000000	5.05716439	578.96796228	38.97323635	0.95731024	0	-0.62580108	61.38923180	578.19401708	-37.56285900	0.87332290	0	-0.35618976	0	2.63194038	0	0	2.74088740	0
56.49000000	6.35413097	626.07821278	50.36888672	0.95263967	0	-0.62779050	65.59045695	530.56249111	-29.56161997	0.86720188	0	-0.35660131	0	1.09526706	0	0	2.47880707	0.00000000
56.50000000	9.97488182	674.25344371	61.30661595	0.94772072	0	-0.62982463	67.88472480	474.65821718	-21.51225550	0.86131769	0	-0.35726919	0	-0.42923124	0	0	2.23033698	0
56.51000000	15.05825321	721.74411706	70.54123321	0.94239713	0	-0.63151353	67.19017955	410.47391358	-13.93887175	0.85689457	0	-0.35893685	0	-1.68416620	0	0	2.01652732	0
56.52000000	20.56807143	765.10908431	77.44498306	0.93680514	0	-0.63282887	62.07111635	340.52576912	-7.16072197	0.85586092	0	-0.36266323	0	-2.54030224	0	0	1.77265075	-0.00000000
56.53000000	25.66594840	800.66642420	82.18419337	0.93118305	0	-0.63391723	51.12065789	270.01574630	-1.47972381	0.85974755	0	-0.36907697	0	-3.05181991	0	0	1.43004237	0.00000000
56.54000000	29.98129965	825.93704570	85.53008533	0.92591921	0	-0.63489760	34.97780384	204.14576764	2.47299158	0.86590419	0	-0.37643308	0	-3.43861407	0	0	1.00582417	0.00000000
56.55000000	33.41727703	840.30540915	88.10997963	0.92103374	0	-0.63583291	16.58853948	146.91727566	4.29839826	0.86010367	0	-0.37700944	0	-3.87623145	0	0	0.63065793	0
56.56000000	36.15659678	844.67584302	90.13304479	0.91628588	0	-0.63674478	-0.15658772	100.60716275	4.34432526	0.81062456	0	-0.35445721	0	-4.40628366	0	0	0.44625014	0.00000000
56.57000000	38.35438323	840.80483348	91.58360769	0.91158318	0	-0.63764045	-12.02597050	65.34265370	3.31999589	0.67630615	0	-0.28783093	0	-4.98585660	0	0	0.50149586	0
56.58000000	39.90677929	830.78965153	92.40467637	0.90692632	0	-0.63853963	-17.19351287	39.60783808	1.97467867	0.44684509	0	-0.17554274	0	-5.54993551	0	0	0.64815127	0
56.59000000	40.64619945	816.74133383	92.53115718	0.90240627	0	-0.63943263	-15.40470301	21.15808191	0.83721506	0.20393877	0	-0.07001010	0	-6.06921647	0	0	0.49470820	0.00000000
56.60000000	40.71755235	800.89860207	91.89318242	0.89809016	0	-0.64026345	-9.44516902	8.51374376	-0.04133429	0.04706308	0	-0.01024722	0	-6.50700994	0	0	0.23001184	0.00000000
56.61000000	40.49926555	785.25773493	90.51986827	0.89393276	0	-0.64098543	-3.71658525	1.28330518	-0.50502701	-0.01581781	0	0.01019685	0	-6.76942039	0	0	0.05508254	-0.00000000
56.62000000	40.31298671	771.15064797	88.63546816	0.88976171	0	-0.64159161	-0.46931855	-1.56256194	-0.53899035	-0.02517157	0	0.01092808	0	-6.82761379	0	0	-0.01622464	0.00000000
56.63000000	40.16108633	758.92197553	86.52973632	0.88561397	0	-0.64210449	0.64382893	-1.92950745	-0.48474301	-0.01613409	0	0.00612642	0	-6.73830945	0	0	-0.02761465	0.00000000
56.64000000	39.90284277	748.17890612	84.40401137	0.88132299	0	-0.64255131	0.67154116	-1.47413413	-0.38466634	-0.00637688	0	0.00206014	0	-6.58642141	0	0	-0.01799761	-0.00000000
56.65000000	39.69058117	738.62005494	82.40339272	0.87664720	0	-0.64293521	0.40164903	-0.97794344	-0.21903501	-0.00088925	0	0.00004622	0	-6.43337363	0	0	-0.00723588	-0.00000000
56.66000000	39.77020519	730.61891177	80.65753301	0.87157840	0	-0.64326072	0.19207283	-0.65968008	-0.15963584	0.00096437	0	-0.00050602	0	-6.29737011	0	0	-0.00109074	0.00000000
56.67000000	40.23943180	724.87074708	79.26403539	0.86642883	0	-0.64356873	0.09935460	-0.53817186	-0.20018380	0.00101242	0	-0.00042038	0	-6.17912996	0	0	0.00102837	0.00000000
56.68000000	41.12780147	721.64626337	78.25041725	0.86128158	0	-0.64386016	0.08358243	-0.59594861	-0.23948344	0.00056232	0	-0.00020564	0	-6.08924491	0	0	0.00111724	-0.00000000
56.69000000	42.64654479	720.54503870	77.48002618	0.85590357	0	-0.64413884	0.10514102	-0.79205652	-0.30942715	0.00018654	0	-0.00005501	0	-6.02258914	0	0	0.00063012	-0.00000000
56.70000000	44.89101997	720.83755493	76.74188420	0.85028406	0	-0.64440287	0.12740957	-0.90194239	-0.39005841	0.00000222	0	0.00000985	0	-5.94249206	0	0	0.00021377	0.00000000
56.71000000	47.58485541	721.93285116	75.93334908	0.84461765	0	-0.64467280	0.16066434	-0.81792356	-0.38348244	-0.00004704	0	0.00002235	0	-5.84689408	0	0	0.00000636	-0.00000000
56.72000000	50.25166714	723.67656919	75.19826718	0.83898164	0	-0.64494495	0.18892903	-0.61377890	-0.31361665	-0.00003752	0	0.00001514	0	-5.76728525	0	0	-0.00005135	-0.00000000
56.73000000	52.78895074	726.16231333	74.71351958	0.83329532	0	-0.64517181	0.18940110	-0.42444585	-0.27620877	-0.00001616	0	0.00000582	0	-5.70435184	0	0	-0.00004376	0.00000000
56.74000000	55.41391882	729.91421485	74.61303000	0.82754773	0	-0.64535127	0.18159623	-0.28156278	-0.22680221	-0.00000178	0	0.00000029	0	-5.65981909	0	0	-0.00002338	0.00000000
56.75000000	58.23298949	735.40394009	74.92983628	0.82175056	0	-0.64553846	0.18599852	-0.17771651	-0.15210568	0.00000055	0	-0.00000069	0	-5.66060958	0	0	-0.00000979	-0.00000000
